<svg width="17" height="16" viewBox="0 0 17 16" fill="none" xmlns="http://www.w3.org/2000/svg">
<path d="M6.25 4.75H10.75" stroke="#333333" stroke-width="1.5" stroke-linecap="round" stroke-linejoin="round"/>
<path d="M6.5 14.25H4.75C3.92157 14.25 3.25 13.5784 3.25 12.75V3.25C3.25 2.42157 3.92157 1.75 4.75 1.75H12.25C13.0784 1.75 13.75 2.42157 13.75 3.25V5.5" stroke="#333333" stroke-width="1.5" stroke-linejoin="round"/>
<path d="M12.7879 7.21214L8.64645 11.3536C8.55268 11.4473 8.5 11.5745 8.5 11.7071V13.7C8.5 13.8657 8.63431 14 8.8 14H10.7929C10.9255 14 11.0527 13.9473 11.1464 13.8536L15.2879 9.71214C15.405 9.59498 15.405 9.40503 15.2879 9.28787L13.2121 7.21214C13.095 7.09498 12.905 7.09498 12.7879 7.21214Z" stroke="#DD3332" stroke-width="1.5" stroke-linecap="round" stroke-linejoin="round"/>
</svg>
