<svg width="17" height="16" viewBox="0 0 17 16" fill="none" xmlns="http://www.w3.org/2000/svg">
<path d="M10.5 1.75535H3.70611C2.90192 1.75535 2.25 2.40643 2.25 3.20957L2.25 12.7907C2.25 13.5938 2.90192 14.2449 3.70611 14.2449H13.2939C14.0981 14.2449 14.75 13.5938 14.75 12.7907V7.00012" stroke="#333333" stroke-width="1.5"/>
<mask id="path-2-outside-1_1693_3982" maskUnits="userSpaceOnUse" x="3.09839" y="3.13867" width="10" height="10" fill="black">
<rect fill="white" x="3.09839" y="3.13867" width="10" height="10"/>
<path fill-rule="evenodd" clip-rule="evenodd" d="M7.68466 4.13867H8.49968C9.12999 4.13867 9.64096 4.64964 9.64096 5.27995C9.64096 5.50088 9.57812 5.7073 9.46933 5.88213L9.46803 5.88422L9.41263 5.96482C9.66652 6.13739 9.84683 6.41044 9.89794 6.72644L9.89832 6.72878L9.90979 6.82689L9.91267 6.91C9.91263 7.51168 9.44706 8.00457 8.85647 8.04814L8.85446 8.04829L8.77136 8.05131L7.68466 8.05127C7.52444 8.05127 7.39129 7.93583 7.36366 7.7836L7.36278 7.77875L7.35819 7.72502L7.35841 4.46492C7.35841 4.3047 7.47385 4.17156 7.62608 4.14393L7.63093 4.14305L7.68466 4.13867ZM10.3471 5.41578C10.3471 4.71045 10.9189 4.13867 11.6242 4.13867C12.3002 4.13867 12.8534 4.6638 12.8984 5.3284L12.8985 5.33024L12.9014 5.41578L12.9013 5.55162C12.9013 5.7318 12.7553 5.87787 12.5751 5.87787C12.4149 5.87787 12.2817 5.76243 12.2541 5.6102L12.2532 5.60535L12.2486 5.55162L12.2488 5.41578C12.2488 5.07082 11.9692 4.79117 11.6242 4.79117C11.3013 4.79117 11.0356 5.03624 11.003 5.3505L10.9996 5.41716V6.77416C10.9996 7.11913 11.2793 7.39878 11.6242 7.39878C11.9471 7.39878 12.2129 7.1537 12.2455 6.83944L12.2488 6.77279V6.63832C12.2488 6.45814 12.3949 6.31208 12.5751 6.31208C12.7353 6.31208 12.8684 6.42751 12.8961 6.57974L12.897 6.5846L12.9016 6.63832L12.9013 6.77416C12.9013 7.47949 12.3295 8.05127 11.6242 8.05127C10.9483 8.05127 10.395 7.52614 10.3501 6.86154L10.3499 6.8597L10.3471 6.77416L10.3471 5.41578ZM5.20191 4.36176C5.29468 4.08345 5.66728 4.06611 5.79724 4.30685L5.79954 4.3111L5.82111 4.36169L6.90762 7.62186C6.9646 7.7928 6.87222 7.97756 6.70128 8.03454C6.54929 8.0852 6.38647 8.01779 6.31212 7.88211L6.30975 7.87778L6.28906 7.82978L6.03084 7.12621H4.99853L4.73387 7.82923C4.68286 7.9806 4.53159 8.06995 4.37878 8.04807L4.37389 8.04738L4.32147 8.03474C4.16948 7.98408 4.07974 7.83225 4.10167 7.6791L4.10237 7.67421L4.115 7.62179L5.20191 4.36176ZM8.01119 4.79104L8.01113 5.76859H8.4984L8.55858 5.76512C8.80087 5.73621 8.98875 5.52991 8.98875 5.27981C8.98875 5.02972 8.80087 4.82342 8.55858 4.79451L8.4984 4.79104H8.01119ZM5.19583 6.44339H5.82098L5.51113 5.49858L5.19583 6.44339ZM8.01113 6.42134L8.01119 7.39889H8.77165C9.04159 7.39889 9.26043 7.18006 9.26043 6.91012C9.26043 6.66002 9.07254 6.45372 8.83025 6.42481L8.77008 6.42134H8.01113ZM10.1367 8.79322C10.305 8.625 10.5777 8.625 10.7459 8.79322C10.8956 8.94285 10.912 9.17491 10.7957 9.34286L10.7893 9.35204L10.7463 9.40277L7.88379 12.2645C7.73417 12.4142 7.5021 12.4306 7.33415 12.3143L7.32498 12.3079L7.27425 12.2649L6.04536 11.0353C5.87713 10.8671 5.87713 10.5943 6.04536 10.4261C6.19499 10.2765 6.42705 10.26 6.595 10.3764L6.60418 10.3827L6.65491 10.4258L7.5792 11.3508L10.1367 8.79322Z"/>
</mask>
<path fill-rule="evenodd" clip-rule="evenodd" d="M7.68466 4.13867H8.49968C9.12999 4.13867 9.64096 4.64964 9.64096 5.27995C9.64096 5.50088 9.57812 5.7073 9.46933 5.88213L9.46803 5.88422L9.41263 5.96482C9.66652 6.13739 9.84683 6.41044 9.89794 6.72644L9.89832 6.72878L9.90979 6.82689L9.91267 6.91C9.91263 7.51168 9.44706 8.00457 8.85647 8.04814L8.85446 8.04829L8.77136 8.05131L7.68466 8.05127C7.52444 8.05127 7.39129 7.93583 7.36366 7.7836L7.36278 7.77875L7.35819 7.72502L7.35841 4.46492C7.35841 4.3047 7.47385 4.17156 7.62608 4.14393L7.63093 4.14305L7.68466 4.13867ZM10.3471 5.41578C10.3471 4.71045 10.9189 4.13867 11.6242 4.13867C12.3002 4.13867 12.8534 4.6638 12.8984 5.3284L12.8985 5.33024L12.9014 5.41578L12.9013 5.55162C12.9013 5.7318 12.7553 5.87787 12.5751 5.87787C12.4149 5.87787 12.2817 5.76243 12.2541 5.6102L12.2532 5.60535L12.2486 5.55162L12.2488 5.41578C12.2488 5.07082 11.9692 4.79117 11.6242 4.79117C11.3013 4.79117 11.0356 5.03624 11.003 5.3505L10.9996 5.41716V6.77416C10.9996 7.11913 11.2793 7.39878 11.6242 7.39878C11.9471 7.39878 12.2129 7.1537 12.2455 6.83944L12.2488 6.77279V6.63832C12.2488 6.45814 12.3949 6.31208 12.5751 6.31208C12.7353 6.31208 12.8684 6.42751 12.8961 6.57974L12.897 6.5846L12.9016 6.63832L12.9013 6.77416C12.9013 7.47949 12.3295 8.05127 11.6242 8.05127C10.9483 8.05127 10.395 7.52614 10.3501 6.86154L10.3499 6.8597L10.3471 6.77416L10.3471 5.41578ZM5.20191 4.36176C5.29468 4.08345 5.66728 4.06611 5.79724 4.30685L5.79954 4.3111L5.82111 4.36169L6.90762 7.62186C6.9646 7.7928 6.87222 7.97756 6.70128 8.03454C6.54929 8.0852 6.38647 8.01779 6.31212 7.88211L6.30975 7.87778L6.28906 7.82978L6.03084 7.12621H4.99853L4.73387 7.82923C4.68286 7.9806 4.53159 8.06995 4.37878 8.04807L4.37389 8.04738L4.32147 8.03474C4.16948 7.98408 4.07974 7.83225 4.10167 7.6791L4.10237 7.67421L4.115 7.62179L5.20191 4.36176ZM8.01119 4.79104L8.01113 5.76859H8.4984L8.55858 5.76512C8.80087 5.73621 8.98875 5.52991 8.98875 5.27981C8.98875 5.02972 8.80087 4.82342 8.55858 4.79451L8.4984 4.79104H8.01119ZM5.19583 6.44339H5.82098L5.51113 5.49858L5.19583 6.44339ZM8.01113 6.42134L8.01119 7.39889H8.77165C9.04159 7.39889 9.26043 7.18006 9.26043 6.91012C9.26043 6.66002 9.07254 6.45372 8.83025 6.42481L8.77008 6.42134H8.01113ZM10.1367 8.79322C10.305 8.625 10.5777 8.625 10.7459 8.79322C10.8956 8.94285 10.912 9.17491 10.7957 9.34286L10.7893 9.35204L10.7463 9.40277L7.88379 12.2645C7.73417 12.4142 7.5021 12.4306 7.33415 12.3143L7.32498 12.3079L7.27425 12.2649L6.04536 11.0353C5.87713 10.8671 5.87713 10.5943 6.04536 10.4261C6.19499 10.2765 6.42705 10.26 6.595 10.3764L6.60418 10.3827L6.65491 10.4258L7.5792 11.3508L10.1367 8.79322Z" fill="#682AEF"/>
<path d="M7.68466 4.13867V4.03834L7.67654 4.039L7.68466 4.13867ZM9.46933 5.88213L9.38443 5.8293L9.38442 5.8293L9.46933 5.88213ZM9.46803 5.88422L9.55053 5.94092L9.55294 5.93704L9.46803 5.88422ZM9.41263 5.96482L9.33022 5.90818L9.27329 5.99102L9.35642 6.04752L9.41263 5.96482ZM9.89794 6.72644L9.79922 6.74241L9.79922 6.74242L9.89794 6.72644ZM9.89832 6.72878L9.99774 6.71715L9.99703 6.7128L9.89832 6.72878ZM9.90979 6.82689L10.0101 6.82341L10.0091 6.81527L9.90979 6.82689ZM9.91267 6.91L10.0127 6.91L10.0126 6.90654L9.91267 6.91ZM8.85647 8.04814L8.84912 7.94841L8.84912 7.94841L8.85647 8.04814ZM8.85446 8.04829L8.8581 8.1483L8.86182 8.14802L8.85446 8.04829ZM8.77136 8.05131L8.77135 8.15138L8.77499 8.15124L8.77136 8.05131ZM7.68466 8.05127L7.68466 7.95127H7.68466V8.05127ZM7.36366 7.7836L7.26527 7.80146L7.26527 7.80146L7.36366 7.7836ZM7.36278 7.77875L7.2627 7.78731L7.26439 7.79661L7.36278 7.77875ZM7.35819 7.72502L7.25782 7.72502L7.25855 7.73354L7.35819 7.72502ZM7.35841 4.46492L7.45841 4.46493V4.46492H7.35841ZM7.62608 4.14393L7.60822 4.04553L7.60822 4.04553L7.62608 4.14393ZM7.63093 4.14305L7.62278 4.04289L7.61307 4.04465L7.63093 4.14305ZM10.3471 5.41578L10.4471 5.41579V5.41578H10.3471ZM12.8984 5.3284L12.9982 5.32169L12.9982 5.32165L12.8984 5.3284ZM12.8985 5.33024L12.9985 5.32691L12.9983 5.32353L12.8985 5.33024ZM12.9014 5.41578L13.0014 5.41581L13.0013 5.41245L12.9014 5.41578ZM12.9013 5.55162L12.8013 5.5516V5.55162H12.9013ZM12.2541 5.6102L12.3525 5.59234L12.3525 5.59234L12.2541 5.6102ZM12.2532 5.60535L12.1531 5.6139L12.1548 5.62321L12.2532 5.60535ZM12.2486 5.55162L12.1482 5.55146L12.149 5.56014L12.2486 5.55162ZM12.2488 5.41578L12.3488 5.41594V5.41578H12.2488ZM11.003 5.3505L10.9034 5.34017L10.9031 5.34546L11.003 5.3505ZM10.9996 5.41716L10.8996 5.41211V5.41716H10.9996ZM12.2455 6.83944L12.3451 6.84977L12.3453 6.84448L12.2455 6.83944ZM12.2488 6.77279L12.3488 6.77784V6.77279H12.2488ZM12.8961 6.57974L12.7977 6.5976L12.7977 6.59761L12.8961 6.57974ZM12.897 6.5846L12.997 6.57604L12.9953 6.56674L12.897 6.5846ZM12.9016 6.63832L13.0019 6.63848L13.0012 6.62981L12.9016 6.63832ZM12.9013 6.77416L12.8013 6.774V6.77416H12.9013ZM10.3501 6.86154L10.2503 6.86828L10.2503 6.86829L10.3501 6.86154ZM10.3499 6.8597L10.2499 6.86304L10.2502 6.86644L10.3499 6.8597ZM10.3471 6.77416L10.247 6.77416L10.2471 6.77749L10.3471 6.77416ZM5.79724 4.30685L5.88524 4.25935L5.88524 4.25935L5.79724 4.30685ZM5.20191 4.36176L5.29677 4.39338L5.29678 4.39338L5.20191 4.36176ZM5.79954 4.3111L5.89191 4.27171L5.88753 4.26359L5.79954 4.3111ZM5.82111 4.36169L5.91629 4.32997L5.9131 4.32247L5.82111 4.36169ZM6.90762 7.62186L6.81275 7.65348L6.81275 7.65348L6.90762 7.62186ZM6.70128 8.03454L6.73291 8.1294L6.70128 8.03454ZM6.31212 7.88211L6.39982 7.83405L6.39981 7.83405L6.31212 7.88211ZM6.30975 7.87778L6.2175 7.91754L6.22205 7.92584L6.30975 7.87778ZM6.28906 7.82978L6.19504 7.86429L6.19723 7.86936L6.28906 7.82978ZM6.03084 7.12621L6.12471 7.09176L6.10066 7.02621H6.03084V7.12621ZM4.99853 7.12621V7.02621H4.92933L4.90495 7.09098L4.99853 7.12621ZM4.73387 7.82923L4.64023 7.79398L4.63911 7.7973L4.73387 7.82923ZM4.37878 8.04807L4.39295 7.94908L4.39295 7.94908L4.37878 8.04807ZM4.37389 8.04738L4.35036 8.14503L4.35972 8.14637L4.37389 8.04738ZM4.32147 8.03474L4.28974 8.12996L4.29805 8.13196L4.32147 8.03474ZM4.10167 7.6791L4.20066 7.69327L4.20066 7.69327L4.10167 7.6791ZM4.10237 7.67421L4.00471 7.65068L4.00337 7.66004L4.10237 7.67421ZM4.115 7.62179L4.01979 7.59005L4.01778 7.59836L4.115 7.62179ZM8.01113 5.76859L7.91113 5.76859L7.91112 5.86859H8.01113V5.76859ZM8.01119 4.79104V4.69104H7.9112L7.91119 4.79103L8.01119 4.79104ZM8.4984 5.76859V5.86876L8.50416 5.86843L8.4984 5.76859ZM8.55858 5.76512L8.56435 5.86514L8.57043 5.86442L8.55858 5.76512ZM8.55858 4.79451L8.57045 4.69503L8.56433 4.69467L8.55858 4.79451ZM8.4984 4.79104L8.50417 4.69104H8.4984V4.79104ZM5.82098 6.44339V6.54339H5.95902L5.916 6.41223L5.82098 6.44339ZM5.19583 6.44339L5.10097 6.41173L5.05704 6.54339H5.19583V6.44339ZM5.51113 5.49858L5.60615 5.46742L5.51196 5.1802L5.41628 5.46692L5.51113 5.49858ZM8.01119 7.39889L7.91119 7.3989L7.9112 7.49889H8.01119V7.39889ZM8.01113 6.42134V6.32134H7.91112L7.91113 6.42134L8.01113 6.42134ZM8.83025 6.42481L8.84212 6.32533L8.83601 6.32497L8.83025 6.42481ZM8.77008 6.42134L8.77585 6.32134H8.77008V6.42134ZM10.7459 8.79322L10.6752 8.86393L10.7459 8.79322ZM10.1367 8.79322L10.066 8.72251L10.066 8.72251L10.1367 8.79322ZM10.7957 9.34286L10.7135 9.28591L10.7135 9.28592L10.7957 9.34286ZM10.7893 9.35204L10.8659 9.41704L10.8715 9.40898L10.7893 9.35204ZM10.7463 9.40277L10.8172 9.47372L10.8225 9.46746L10.7463 9.40277ZM7.88379 12.2645L7.81309 12.1938L7.81308 12.1938L7.88379 12.2645ZM7.33415 12.3143L7.3911 12.2321L7.3911 12.2321L7.33415 12.3143ZM7.32498 12.3079L7.25997 12.3845L7.26803 12.3901L7.32498 12.3079ZM7.27425 12.2649L7.20328 12.3358L7.20955 12.3411L7.27425 12.2649ZM6.04536 11.0353L6.11609 10.9646L6.11607 10.9646L6.04536 11.0353ZM6.04536 10.4261L6.11607 10.4968L6.04536 10.4261ZM6.595 10.3764L6.65195 10.2942L6.65195 10.2942L6.595 10.3764ZM6.60418 10.3827L6.66918 10.3061L6.66112 10.3005L6.60418 10.3827ZM6.65491 10.4258L6.72589 10.3548L6.7196 10.3495L6.65491 10.4258ZM7.5792 11.3508L7.50846 11.4215L7.57917 11.4923L7.64991 11.4215L7.5792 11.3508ZM8.49968 4.03867H7.68466V4.23867H8.49968V4.03867ZM9.74096 5.27995C9.74096 4.59441 9.18522 4.03867 8.49968 4.03867V4.23867C9.07476 4.23867 9.54096 4.70487 9.54096 5.27995H9.74096ZM9.55423 5.93497C9.67261 5.74474 9.74096 5.52009 9.74096 5.27995H9.54096C9.54096 5.48167 9.48364 5.66986 9.38443 5.8293L9.55423 5.93497ZM9.55294 5.93704L9.55424 5.93496L9.38442 5.8293L9.38313 5.83139L9.55294 5.93704ZM9.49504 6.02146L9.55044 5.94086L9.38562 5.82757L9.33022 5.90818L9.49504 6.02146ZM9.99666 6.71047C9.94105 6.36667 9.74492 6.06977 9.46885 5.88212L9.35642 6.04752C9.58812 6.20502 9.75261 6.4542 9.79922 6.74241L9.99666 6.71047ZM9.99703 6.7128L9.99665 6.71045L9.79922 6.74242L9.7996 6.74476L9.99703 6.7128ZM10.0091 6.81527L9.99764 6.71717L9.79899 6.74039L9.81047 6.8385L10.0091 6.81527ZM10.0126 6.90654L10.0097 6.82343L9.80985 6.83035L9.81273 6.91346L10.0126 6.90654ZM8.86383 8.14787C9.50626 8.10048 10.0126 7.56445 10.0127 6.91L9.81267 6.90999C9.81263 7.45891 9.38786 7.90867 8.84912 7.94841L8.86383 8.14787ZM8.86182 8.14802L8.86383 8.14787L8.84912 7.94841L8.84711 7.94856L8.86182 8.14802ZM8.77499 8.15124L8.85809 8.14823L8.85084 7.94836L8.76773 7.95138L8.77499 8.15124ZM7.68465 8.15127L8.77135 8.15131L8.77136 7.95131L7.68466 7.95127L7.68465 8.15127ZM7.26527 7.80146C7.30137 8.00037 7.47521 8.15127 7.68466 8.15127V7.95127C7.57367 7.95127 7.48121 7.87129 7.46205 7.76575L7.26527 7.80146ZM7.26439 7.79661L7.26527 7.80146L7.46205 7.76575L7.46117 7.76089L7.26439 7.79661ZM7.25855 7.73354L7.26314 7.78727L7.46242 7.77023L7.45783 7.71651L7.25855 7.73354ZM7.25841 4.46491L7.25819 7.72502L7.45819 7.72503L7.45841 4.46493L7.25841 4.46491ZM7.60822 4.04553C7.40931 4.08164 7.25841 4.25547 7.25841 4.46492H7.45841C7.45841 4.35393 7.53839 4.26148 7.64393 4.24232L7.60822 4.04553ZM7.61307 4.04465L7.60822 4.04553L7.64393 4.24232L7.64879 4.24144L7.61307 4.04465ZM7.67654 4.039L7.62282 4.04337L7.63904 4.24272L7.69277 4.23834L7.67654 4.039ZM11.6242 4.03867C10.8637 4.03867 10.2471 4.65523 10.2471 5.41578H10.4471C10.4471 4.76568 10.9741 4.23867 11.6242 4.23867V4.03867ZM12.9982 5.32165C12.9497 4.60493 12.3532 4.03867 11.6242 4.03867V4.23867C12.2472 4.23867 12.7572 4.72267 12.7986 5.33515L12.9982 5.32165ZM12.9983 5.32353L12.9982 5.32169L12.7986 5.33511L12.7987 5.33695L12.9983 5.32353ZM13.0013 5.41245L12.9985 5.32691L12.7986 5.33357L12.8014 5.41911L13.0013 5.41245ZM13.0013 5.55164L13.0014 5.41581L12.8014 5.41576L12.8013 5.5516L13.0013 5.55164ZM12.5751 5.97787C12.8105 5.97787 13.0013 5.78703 13.0013 5.55162H12.8013C12.8013 5.67657 12.7 5.77787 12.5751 5.77787V5.97787ZM12.1557 5.62806C12.1918 5.82697 12.3656 5.97787 12.5751 5.97787V5.77787C12.4641 5.77787 12.3716 5.69789 12.3525 5.59234L12.1557 5.62806ZM12.1548 5.62321L12.1557 5.62806L12.3525 5.59234L12.3516 5.58749L12.1548 5.62321ZM12.149 5.56014L12.1536 5.61386L12.3528 5.59683L12.3483 5.54311L12.149 5.56014ZM12.1488 5.41562L12.1486 5.55146L12.3486 5.55178L12.3488 5.41594L12.1488 5.41562ZM11.6242 4.89117C11.914 4.89117 12.1488 5.12605 12.1488 5.41578H12.3488C12.3488 5.01559 12.0244 4.69117 11.6242 4.69117V4.89117ZM11.1024 5.36082C11.1298 5.097 11.3531 4.89117 11.6242 4.89117V4.69117C11.2496 4.69117 10.9413 4.97548 10.9035 5.34019L11.1024 5.36082ZM11.0995 5.4222L11.1028 5.35555L10.9031 5.34546L10.8997 5.41211L11.0995 5.4222ZM11.0996 6.77416V5.41716H10.8996V6.77416H11.0996ZM11.6242 7.29878C11.3345 7.29878 11.0996 7.0639 11.0996 6.77416H10.8996C10.8996 7.17436 11.224 7.49878 11.6242 7.49878V7.29878ZM12.146 6.82912C12.1186 7.09294 11.8954 7.29878 11.6242 7.29878V7.49878C11.9989 7.49878 12.3071 7.21446 12.3449 6.84976L12.146 6.82912ZM12.149 6.76774L12.1456 6.8344L12.3453 6.84448L12.3487 6.77783L12.149 6.76774ZM12.1488 6.63832V6.77279H12.3488V6.63832H12.1488ZM12.5751 6.21208C12.3397 6.21208 12.1488 6.40291 12.1488 6.63832H12.3488C12.3488 6.51337 12.4501 6.41208 12.5751 6.41208V6.21208ZM12.9945 6.56188C12.9584 6.36297 12.7845 6.21208 12.5751 6.21208V6.41208C12.6861 6.41208 12.7785 6.49206 12.7977 6.5976L12.9945 6.56188ZM12.9953 6.56674L12.9945 6.56188L12.7977 6.59761L12.7986 6.60246L12.9953 6.56674ZM13.0012 6.62981L12.9966 6.57608L12.7973 6.59311L12.8019 6.64684L13.0012 6.62981ZM13.0013 6.77432L13.0015 6.63848L12.8016 6.63816L12.8013 6.774L13.0013 6.77432ZM11.6242 8.15127C12.3848 8.15127 13.0013 7.53472 13.0013 6.77416H12.8013C12.8013 7.42426 12.2743 7.95127 11.6242 7.95127V8.15127ZM10.2503 6.86829C10.2987 7.58502 10.8953 8.15127 11.6242 8.15127V7.95127C11.0012 7.95127 10.4912 7.46727 10.4498 6.8548L10.2503 6.86829ZM10.2502 6.86644L10.2503 6.86828L10.4498 6.85481L10.4497 6.85296L10.2502 6.86644ZM10.2471 6.77749L10.25 6.86303L10.4499 6.85637L10.447 6.77083L10.2471 6.77749ZM10.2471 5.41578L10.2471 6.77416L10.4471 6.77416L10.4471 5.41579L10.2471 5.41578ZM5.88524 4.25935C5.7156 3.94512 5.22879 3.96489 5.10704 4.33013L5.29678 4.39338C5.36056 4.20202 5.61895 4.18709 5.70925 4.35436L5.88524 4.25935ZM5.88753 4.26359L5.88524 4.25935L5.70925 4.35436L5.71154 4.3586L5.88753 4.26359ZM5.9131 4.32247L5.89152 4.27188L5.70755 4.35032L5.72912 4.40091L5.9131 4.32247ZM7.00249 7.59024L5.91598 4.33008L5.72624 4.39331L6.81275 7.65348L7.00249 7.59024ZM6.73291 8.1294C6.95624 8.05496 7.07693 7.81357 7.00249 7.59024L6.81275 7.65348C6.85227 7.77202 6.7882 7.90015 6.66966 7.93967L6.73291 8.1294ZM6.22442 7.93017C6.32157 8.10745 6.5342 8.19564 6.73291 8.1294L6.66966 7.93967C6.56437 7.97476 6.45137 7.92813 6.39982 7.83405L6.22442 7.93017ZM6.22205 7.92584L6.22442 7.93017L6.39981 7.83405L6.39744 7.82973L6.22205 7.92584ZM6.19723 7.86936L6.21791 7.91736L6.40158 7.83821L6.3809 7.79021L6.19723 7.86936ZM5.93696 7.16067L6.19519 7.86424L6.38294 7.79533L6.12471 7.09176L5.93696 7.16067ZM4.99853 7.22621H6.03084V7.02621H4.99853V7.22621ZM4.82746 7.86446L5.09212 7.16144L4.90495 7.09098L4.64028 7.794L4.82746 7.86446ZM4.36461 8.14707C4.56427 8.17565 4.76195 8.05905 4.82863 7.86116L4.63911 7.7973C4.60377 7.90215 4.4989 7.96425 4.39295 7.94908L4.36461 8.14707ZM4.35972 8.14637L4.36461 8.14707L4.39295 7.94908L4.38806 7.94838L4.35972 8.14637ZM4.29805 8.13196L4.35047 8.14459L4.39732 7.95016L4.3449 7.93753L4.29805 8.13196ZM4.00268 7.66492C3.97404 7.86495 4.09106 8.06335 4.28985 8.12961L4.3531 7.93987C4.2479 7.90481 4.18544 7.79955 4.20066 7.69327L4.00268 7.66492ZM4.00337 7.66004L4.00268 7.66492L4.20066 7.69327L4.20136 7.68838L4.00337 7.66004ZM4.01778 7.59836L4.00515 7.65078L4.19958 7.69764L4.21222 7.64522L4.01778 7.59836ZM5.10704 4.33013L4.02013 7.59016L4.20986 7.65342L5.29677 4.39338L5.10704 4.33013ZM8.11113 5.7686L8.11119 4.79104L7.91119 4.79103L7.91113 5.76859L8.11113 5.7686ZM8.4984 5.66859H8.01113V5.86859H8.4984V5.66859ZM8.55282 5.66529L8.49264 5.66876L8.50416 5.86843L8.56433 5.86496L8.55282 5.66529ZM8.88875 5.27981C8.88875 5.47868 8.73932 5.64284 8.54673 5.66583L8.57043 5.86442C8.86242 5.82957 9.08875 5.58114 9.08875 5.27981H8.88875ZM8.54673 4.8938C8.73932 4.91679 8.88875 5.08095 8.88875 5.27981H9.08875C9.08875 4.97848 8.86242 4.73006 8.57043 4.69521L8.54673 4.8938ZM8.49264 4.89087L8.55282 4.89434L8.56433 4.69467L8.50416 4.6912L8.49264 4.89087ZM8.01119 4.89104H8.4984V4.69104H8.01119V4.89104ZM5.82098 6.34339H5.19583V6.54339H5.82098V6.34339ZM5.41611 5.52974L5.72596 6.47455L5.916 6.41223L5.60615 5.46742L5.41611 5.52974ZM5.29069 6.47504L5.60599 5.53024L5.41628 5.46692L5.10097 6.41173L5.29069 6.47504ZM8.11119 7.39889L8.11113 6.42133L7.91113 6.42134L7.91119 7.3989L8.11119 7.39889ZM8.77165 7.29889H8.01119V7.49889H8.77165V7.29889ZM9.16043 6.91012C9.16043 7.12483 8.98637 7.29889 8.77165 7.29889V7.49889C9.09682 7.49889 9.36043 7.23529 9.36043 6.91012H9.16043ZM8.8184 6.5241C9.01099 6.54709 9.16043 6.71125 9.16043 6.91012H9.36043C9.36043 6.60878 9.1341 6.36036 8.8421 6.32551L8.8184 6.5241ZM8.76432 6.52117L8.82449 6.52464L8.83601 6.32497L8.77584 6.3215L8.76432 6.52117ZM8.01113 6.52134H8.77008V6.32134H8.01113V6.52134ZM10.8166 8.72251C10.6094 8.51523 10.2733 8.51523 10.066 8.72251L10.2075 8.86393C10.3366 8.73476 10.5461 8.73476 10.6752 8.86393L10.8166 8.72251ZM10.8779 9.39981C11.0212 9.19287 11.0011 8.90696 10.8166 8.72251L10.6752 8.86393C10.79 8.97873 10.8028 9.15695 10.7135 9.28591L10.8779 9.39981ZM10.8715 9.40898L10.8779 9.39981L10.7135 9.28592L10.7071 9.29509L10.8715 9.40898ZM10.8225 9.46746L10.8656 9.41673L10.7131 9.28734L10.67 9.33807L10.8225 9.46746ZM7.9545 12.3353L10.817 9.47348L10.6756 9.33205L7.81309 12.1938L7.9545 12.3353ZM7.27721 12.3965C7.48414 12.5398 7.77005 12.5197 7.9545 12.3352L7.81308 12.1938C7.69828 12.3086 7.52007 12.3214 7.3911 12.2321L7.27721 12.3965ZM7.26803 12.3901L7.27721 12.3965L7.3911 12.2321L7.38192 12.2257L7.26803 12.3901ZM7.20955 12.3411L7.26028 12.3842L7.38967 12.2317L7.33894 12.1886L7.20955 12.3411ZM5.97463 11.106L7.20352 12.3356L7.34498 12.1942L6.11609 10.9646L5.97463 11.106ZM5.97465 10.3554C5.76737 10.5627 5.76737 10.8987 5.97465 11.106L6.11607 10.9646C5.9869 10.8354 5.9869 10.626 6.11607 10.4968L5.97465 10.3554ZM6.65195 10.2942C6.44501 10.1508 6.1591 10.171 5.97465 10.3554L6.11607 10.4968C6.23087 10.382 6.40909 10.3692 6.53806 10.4586L6.65195 10.2942ZM6.66112 10.3005L6.65195 10.2942L6.53806 10.4586L6.54723 10.4649L6.66112 10.3005ZM6.7196 10.3495L6.66887 10.3065L6.53948 10.459L6.59022 10.502L6.7196 10.3495ZM7.64994 11.2801L6.72565 10.3551L6.58417 10.4964L7.50846 11.4215L7.64994 11.2801ZM10.066 8.72251L7.50849 11.2801L7.64991 11.4215L10.2075 8.86393L10.066 8.72251Z" fill="#682AEF" mask="url(#path-2-outside-1_1693_3982)"/>
<path d="M14.2574 5.33034C14.2271 5.54871 13.8891 5.56035 13.8623 5.34157C13.7651 4.55007 13.2906 3.8435 12.5733 3.42229L12.1644 3.18214C12.0072 3.08979 12.0128 2.87217 12.1747 2.7872L12.4738 2.63021C13.2484 2.22358 13.7666 1.48862 13.8644 0.657669C13.89 0.440324 14.226 0.451297 14.2549 0.668271C14.3642 1.48828 14.8781 2.22301 15.6395 2.63232L15.9257 2.78618C16.0865 2.8726 16.0922 3.08921 15.9362 3.18304L15.539 3.42188C14.836 3.84471 14.3658 4.55069 14.2574 5.33034Z" fill="#682AEF"/>
</svg>
