<svg width="17" height="16" viewBox="0 0 17 16" fill="none" xmlns="http://www.w3.org/2000/svg">
<path d="M14.2076 13.3303C14.1773 13.5487 13.8393 13.5604 13.8125 13.3416C13.7153 12.5501 13.2408 11.8435 12.5235 11.4223L12.1146 11.1821C11.9574 11.0898 11.963 10.8722 12.1249 10.7872L12.424 10.6302C13.1986 10.2236 13.7168 9.48862 13.8146 8.65767C13.8402 8.44032 14.1762 8.4513 14.2051 8.66827C14.3143 9.48828 14.8283 10.223 15.5897 10.6323L15.8759 10.7862C16.0367 10.8726 16.0424 11.0892 15.8864 11.183L15.4892 11.4219C14.7862 11.8447 14.316 12.5507 14.2076 13.3303Z" fill="#682AEF"/>
<path d="M10.883 12.9961C9.53189 12.9961 8.67706 13.6713 8.26837 14.0872C8.12557 14.2326 7.86714 14.2323 7.72465 14.0866C7.31884 13.6717 6.45682 13 5.12916 13C4.58045 13 3.98517 13 3.43983 13C2.64454 13 1.99997 12.3285 2 11.5C2.00012 8.66673 2.0005 5.83343 2.00044 3.00013C2.00042 2.17166 2.64478 1.5 3.44012 1.5C3.88777 1.5 4.42621 1.5 5.09373 1.5C7.51945 1.5 7.99998 3.74609 7.99998 3.74609C7.99998 3.74609 8.45723 1.5 10.883 1.5L12.56 1.5C13.3553 1.5 14 2.17157 14 3L14 7" stroke="#333333" stroke-width="1.5" stroke-linejoin="round"/>
<path d="M8 3L8 10.5" stroke="#333333" stroke-width="1.5" stroke-linecap="round"/>
</svg>
