<svg width="17" height="16" viewBox="0 0 17 16" fill="none" xmlns="http://www.w3.org/2000/svg">
<mask id="mask0_1693_4613" style="mask-type:alpha" maskUnits="userSpaceOnUse" x="9" y="4" width="5" height="8">
<rect x="9.17676" y="4.07642" width="4.62598" height="7.40156" fill="#682AEF"/>
</mask>
<g mask="url(#mask0_1693_4613)">
<path fill-rule="evenodd" clip-rule="evenodd" d="M10.1027 4.88128C9.85244 4.835 9.60518 5.00053 9.56446 5.25775C9.52657 5.49708 9.6853 5.7257 9.92671 5.7683C10.5148 5.87208 11.2373 5.97535 11.7769 6.03403C12.0242 6.06092 12.2417 5.88246 12.2722 5.63977C12.3051 5.37841 12.1119 5.14665 11.8543 5.12196C11.3398 5.07264 10.6392 4.98049 10.1027 4.88128ZM12.2376 6.614C12.1052 6.44948 11.8875 6.39939 11.7049 6.43229C11.6828 6.43627 11.6619 6.43957 11.6432 6.44202L11.6432 6.44201L11.6418 6.44221C11.1764 6.50763 9.80678 6.59381 9.48945 6.60064C9.43509 6.60063 9.38123 6.60014 9.32892 6.59918C9.05171 6.59404 8.80987 6.82548 8.83114 7.11411C8.85196 7.39682 9.11223 7.58138 9.37527 7.55412C9.41868 7.54962 9.46442 7.5457 9.51266 7.54255L9.51266 7.5426L9.51665 7.54223L9.7465 7.52064C10.0536 7.49163 10.4869 7.45071 10.8427 7.42206C10.5555 7.74492 10.1773 8.16731 9.82089 8.56504L9.59028 8.82233L9.58992 8.82274C9.21836 9.23728 8.90196 9.59028 8.78774 9.71988C8.76326 9.74586 8.73918 9.77098 8.71562 9.79516C8.51859 9.99742 8.5246 10.3385 8.7586 10.5191C8.97001 10.6822 9.27078 10.6345 9.42835 10.4258C9.77668 9.96439 10.1969 9.46999 10.3748 9.27248C10.5091 9.12338 10.6088 9.06832 10.6847 9.06832C10.721 9.06832 10.7535 9.07992 10.7856 9.11057C10.8203 9.14377 10.8591 9.20424 10.8903 9.30777C10.9074 9.36965 10.9315 9.46501 10.958 9.56999C10.9994 9.73426 11.0467 9.92207 11.0827 10.042L11.0827 10.042L11.0833 10.0438C11.1609 10.2913 11.2908 10.4693 11.488 10.5799C11.6785 10.6866 11.9143 10.7204 12.1842 10.7204C12.4227 10.7204 12.8065 10.6906 13.0928 10.6563C13.3187 10.6292 13.4797 10.441 13.491 10.2228C13.5075 9.90044 13.2104 9.66719 12.9107 9.7088C12.6944 9.73884 12.4519 9.75815 12.2142 9.75815C12.0953 9.75815 12.0273 9.73366 11.9852 9.70206C11.9441 9.67115 11.9084 9.61891 11.8837 9.52291L11.8839 9.52286L11.8817 9.51589C11.8541 9.42701 11.8236 9.31386 11.792 9.19647L11.7873 9.17904C11.7548 9.05833 11.7211 8.93389 11.6899 8.83685C11.6088 8.56098 11.465 8.34364 11.1995 8.27683C11.4628 7.99391 11.8785 7.56987 12.0718 7.38074L12.0718 7.38078L12.0746 7.37798C12.1038 7.34787 12.1407 7.31177 12.1827 7.27269C12.3635 7.10407 12.4007 6.8166 12.2376 6.614Z" fill="#682AEF"/>
</g>
<path fill-rule="evenodd" clip-rule="evenodd" d="M5.92887 4.76891L5.96979 4.85623L7.96979 10.3562C8.06416 10.6157 7.93028 10.9026 7.67076 10.997C7.44008 11.0809 7.18778 10.9844 7.06828 10.7797L7.03 10.698L6.42276 9.0271H4.57676L3.96979 10.698C3.8859 10.9287 3.64991 11.0601 3.41624 11.0201L3.32902 10.997C3.09834 10.9131 2.96693 10.6771 3.00685 10.4434L3.03 10.3562L5.03 4.85623C5.17817 4.44874 5.7239 4.41963 5.92887 4.76891ZM5.49989 6.4881L4.94076 8.0271H6.05876L5.49989 6.4881Z" fill="#333333"/>
<path d="M2.17236 3.96802C2.17236 3.5222 2.46748 3.13023 2.89592 3.00699L7.55094 1.66795C8.19015 1.48408 8.82739 1.96386 8.82739 2.62898V13.3729C8.82739 14.0381 8.19015 14.5178 7.55094 14.334L2.89592 12.9949C2.46748 12.8717 2.17236 12.4797 2.17236 12.0339V3.96802Z" stroke="#333333" stroke-width="1.25"/>
<path d="M10.4993 2.35181H13.9002C14.4525 2.35181 14.9002 2.79952 14.9002 3.35181V12.5542C14.9002 13.1064 14.4525 13.5542 13.9002 13.5542H10.4993" stroke="#333333" stroke-width="1.25"/>
</svg>
