<svg width="17" height="16" viewBox="0 0 17 16" fill="none" xmlns="http://www.w3.org/2000/svg">
<path fill-rule="evenodd" clip-rule="evenodd" d="M12.7143 9.20697C13.0072 8.91408 13.482 8.91408 13.7749 9.20697L15.2749 10.707C15.4894 10.9215 15.5536 11.2441 15.4375 11.5243C15.3214 11.8046 15.048 11.9873 14.7446 11.9873H10.2595C9.84531 11.9873 9.50952 11.6515 9.50952 11.2373C9.50952 10.8231 9.84531 10.4873 10.2595 10.4873H12.934L12.7143 10.2676C12.4214 9.97474 12.4214 9.49987 12.7143 9.20697Z" fill="#BB2A35"/>
<path fill-rule="evenodd" clip-rule="evenodd" d="M15.5146 13.75C15.5146 13.3358 15.1789 13 14.7646 13H10.2281C9.92475 13 9.65127 13.1827 9.53519 13.463C9.4191 13.7432 9.48327 14.0658 9.69777 14.2803L11.1978 15.7803C11.4907 16.0732 11.9655 16.0732 12.2584 15.7803C12.5513 15.4874 12.5513 15.0126 12.2584 14.7197L12.0388 14.5H14.7646C15.1789 14.5 15.5146 14.1642 15.5146 13.75Z" fill="#BB2A35"/>
<path d="M6.25 4.75H10.75" stroke="#333333" stroke-width="1.5" stroke-linecap="round" stroke-linejoin="round"/>
<path d="M7.5 14.25H4.75C3.92157 14.25 3.25 13.5784 3.25 12.75V3.25C3.25 2.42157 3.92157 1.75 4.75 1.75H12.25C13.0784 1.75 13.75 2.42157 13.75 3.25V7.00009" stroke="#333333" stroke-width="1.5" stroke-linejoin="round"/>
</svg>
