<svg width="72" height="72" xmlns="http://www.w3.org/2000/svg"><g fill="none" fill-rule="evenodd"><circle fill="#EDEDED" cx="36" cy="36" r="36"/><path d="M36 13.948c8.488 0 15.823 4.935 19.293 12.091a5.844 5.844 0 112.355 11.281l-.308.004a21.337 21.337 0 01-5.45 12.43l-.308.332 8.277 17.7h-7.36l.001.218A35.846 35.846 0 0136 72a35.842 35.842 0 01-16.916-4.214H14.57l5.765-17.787a21.35 21.35 0 01-5.677-12.676l-.088.002a5.844 5.844 0 112.137-11.286C20.177 18.883 27.512 13.95 36 13.95z" fill="#FFF"/><path d="M19.678 49.911c7.448 2.471 13.048 3.707 16.8 3.707 3.752 0 9.188-1.535 16.306-4.605l.684 6.12L37.21 67.16 18.468 55.133l1.21-5.222z" fill="#417FF9"/><path d="M54.498 55.582l-.892-7.984-1.207.52-1.426.604c-6.308 2.618-11.153 3.922-14.495 3.922-3.5 0-8.758-1.134-15.738-3.41l-1.769-.584-1.607 6.931L37.25 68.343l17.248-12.761zm-2.536-5.164l.475 4.264L37.17 65.978l-17.6-11.295.817-3.517.518.17c6.78 2.168 11.96 3.256 15.573 3.256 3.51 0 8.332-1.26 14.502-3.767l.982-.407z" fill="#000" fill-rule="nonzero"/><path d="M35.976 49.785l.032-.034c1.522-1.512 4.673-1.15 5.952.719 1.26 1.841 4.356 4.36 9.287 7.556l.453.292-1.17 11.008-.946-.727c-7.76-6.006-12.381-10.732-13.863-14.177-.894 4.152-3.07 9.167-6.527 15.046l-4.837-8.285 5.716-13.223.083-.195c1.232-2.898 5.035-2.05 5.82 2.02z" fill="#FFF"/><path d="M36.652 48.868l.01-.008c.21-.157.44-.296.688-.414 1.8-.858 4.04-.338 5.284 1.295l.13.179c1.102 1.61 3.858 3.891 8.23 6.777l1.232.802-1.052 1.64-.915-.594-.874-.578c-4.266-2.853-6.998-5.149-8.229-6.947-.664-.97-1.957-1.297-2.967-.815-.551.262-.943.724-1.118 1.373.001.407-.024.828-.079 1.26.038.384.127.805.272 1.261 1.007 3.167 5.152 7.655 12.412 13.337l1.444 1.115-.15.199c-.59.27-1.189.524-1.796.763l-.972-.757c-6.204-4.88-10.2-8.938-12.001-12.248-1.044 3.645-2.933 7.836-5.662 12.584l-.506.87-1.679-.988c3.714-6.317 5.918-11.597 6.62-15.816l.065-.413a5.59 5.59 0 01.098-1.41c-.041-4.053-3.033-5.662-4.085-3.19L25.25 61.573l-1.786-.777 5.796-13.411c1.78-4.188 6.04-2.65 7.392 1.484zM36 12.974c8.767 0 16.358 5.036 20.037 12.373l.201.412.231-.044a5.844 5.844 0 012.033 11.512l-.179.029-.002.046a22.299 22.299 0 01-5.127 12.437l-.454.525 6.275 13.42c-.512.426-1.036.838-1.572 1.236L50.42 49.9l.454-.482a20.377 20.377 0 005.58-14.041c0-11.297-9.157-20.455-20.454-20.455S15.545 24.08 15.545 35.377a20.37 20.37 0 005.053 13.46l.45.497.391.42-5.28 16.29a36.097 36.097 0 01-1.668-1.173l4.744-14.637-.065-.07a22.305 22.305 0 01-5.495-12.908 5.845 5.845 0 112.087-11.498C19.36 18.199 27.07 12.974 36 12.974zm-9.003 25.075c.567 1.664 1.312 2.393 2.253 2.393.544 0 1.059-.134 2.103-.548l1.696-.697c1.188-.47 2.072-.703 2.944-.703.797 0 1.59.191 2.625.585l.927.375.788.33.455.18c.918.357 1.418.478 1.949.478.918 0 1.63-.637 2.159-2.082l.103-.3 1.482.48c-.725 2.237-1.983 3.46-3.744 3.46-.867 0-1.547-.185-2.93-.748l-1.372-.57c-1.067-.431-1.795-.63-2.442-.63-.559 0-1.19.15-2.04.468l-.745.295-1.021.423-.531.211c-1.073.414-1.667.551-2.406.551-1.635 0-2.843-1.1-3.61-3.122l-.118-.327 1.475-.502zM36 31.481c2.152 0 3.896.872 3.896 1.948 0 1.075-1.744 1.948-3.896 1.948s-3.896-.873-3.896-1.948c0-1.076 1.744-1.948 3.896-1.948zm-21.429-3.897a3.896 3.896 0 00-1.157 7.618l.184.052.006-.422c.06-2.535.542-4.966 1.378-7.225a3.706 3.706 0 00-.41-.023zm42.858 0l-.258.009-.133.012-.01.028a22.34 22.34 0 011.372 7.373l.001.247.186-.052a3.898 3.898 0 00-1.158-7.617zm-31.221 0a1.948 1.948 0 110 3.897 1.948 1.948 0 010-3.897zm19.532 0a1.948 1.948 0 110 3.897 1.948 1.948 0 010-3.897z" fill="#000"/></g></svg>