<svg width="31" height="33" viewBox="0 0 31 33" fill="none" xmlns="http://www.w3.org/2000/svg">
<g filter="url(#filter0_f_1756_584)">
<path fill-rule="evenodd" clip-rule="evenodd" d="M15.4404 31.4903L28.1904 24.9278C29.1904 24.4278 29.3426 23.2691 28.9206 22.6621C26.7371 19.5216 8.09015 19.015 3.06538 22.1242C2.27569 22.6129 2.00288 23.0692 2.00288 23.7403C1.8708 24.8062 6.27842 27.2602 15.4404 31.4903Z" fill="url(#paint0_linear_1756_584)"/>
</g>
<path fill-rule="evenodd" clip-rule="evenodd" d="M14.9716 1.91237C15.3004 1.72257 15.7054 1.72257 16.0341 1.91237L28.664 9.20423V23.788C28.664 24.1676 28.4615 24.5183 28.1328 24.7081L15.5029 32L2.84742 24.708C2.52887 24.5245 2.32862 24.1898 2.316 23.8241L2.31537 9.37457L2.34812 9.20055L14.9716 1.91237Z" stroke="url(#paint1_linear_1756_584)" stroke-width="0.125"/>
<path fill-rule="evenodd" clip-rule="evenodd" d="M16.0029 1.96649L28.6015 9.24032V22.0559C28.6015 23.485 27.8391 24.8055 26.6015 25.52L17.0029 31.0618C16.0747 31.5977 14.9311 31.5977 14.0029 31.0618L4.40424 25.52C3.16663 24.8055 2.40424 23.485 2.40424 22.0559V9.24032L15.0029 1.96649C15.3123 1.78786 15.6935 1.78786 16.0029 1.96649Z" fill="url(#paint2_linear_1756_584)"/>
<g filter="url(#filter1_f_1756_584)">
<path d="M6.19037 16.4904V8.11536L13.0654 4.55286V12.8654L6.19037 16.4904Z" fill="url(#paint3_linear_1756_584)"/>
</g>
<g clip-path="url(#clip0_1756_584)">
<rect x="7.25" y="0.802856" width="16.5" height="16.5" rx="2" fill="url(#paint4_linear_1756_584)"/>
<rect x="7.25" y="1.05286" width="16.5" height="16.5" rx="2" fill="url(#paint5_linear_1756_584)"/>
<rect x="7.25" y="1.17786" width="16.5" height="16.5" rx="2" fill="url(#paint6_linear_1756_584)"/>
<g clip-path="url(#clip1_1756_584)">
<path d="M17.6394 5.87481L14.1633 12.7078C14.0264 12.9768 13.7543 13.1314 13.4722 13.131C13.1902 13.1314 12.918 12.9768 12.7812 12.7078L9.63135 6.51613C9.5535 6.36311 9.53129 6.19635 9.55719 6.03898C9.59965 5.65133 9.92767 5.34973 10.326 5.34973H14.3577C14.6795 5.34973 14.9555 5.54662 15.072 5.8267L15.2364 6.1499L14.3679 7.85567L13.8813 6.89918H11.5625L13.4722 10.6532L15.9226 5.83651C16.0745 5.53783 16.3813 5.34973 16.7163 5.34973H18.4137C18.2613 5.3556 18.118 5.39901 17.9837 5.47996C17.8548 5.55766 17.7433 5.68323 17.6491 5.85665L17.6395 5.87454L17.6394 5.87481Z" fill="white"/>
<path fill-rule="evenodd" clip-rule="evenodd" d="M18.9452 5.34973C18.7928 5.3556 18.6495 5.39901 18.5153 5.47996C18.3863 5.55766 18.2748 5.68323 18.1806 5.85665L18.1702 5.87604L17.6497 6.89919L19.4368 6.89918L17.5272 10.6529L16.6336 8.89652L15.9532 10.234L15.9498 10.2327L15.7634 10.5988L16.837 12.7093C16.9719 12.9737 17.2382 13.1272 17.5157 13.1309C17.519 13.131 17.5222 13.131 17.5255 13.131H17.5289C17.5328 13.131 17.5367 13.131 17.5406 13.1309C17.8174 13.1265 18.0828 12.9731 18.2174 12.7093L21.3689 6.51435C21.4318 6.39062 21.4583 6.25791 21.4523 6.12848L21.4523 6.12317C21.4523 5.69601 21.106 5.34973 20.6789 5.34973H18.9452ZM17.5389 13.1309L17.5406 13.1309C17.54 13.1309 17.5395 13.1309 17.5389 13.1309ZM17.5137 13.1309L17.5157 13.1309C17.5151 13.1309 17.5144 13.1309 17.5137 13.1309Z" fill="white"/>
</g>
<rect x="7.25" y="1.17786" width="16.5" height="16.5" rx="2" fill="url(#paint7_linear_1756_584)"/>
</g>
<path fill-rule="evenodd" clip-rule="evenodd" d="M28.6015 9.24036V23.788C28.6015 24.1453 28.4109 24.4754 28.1015 24.654L15.5029 31.9279V16.8029L28.6015 9.24036Z" fill="url(#paint8_linear_1756_584)"/>
<path fill-rule="evenodd" clip-rule="evenodd" d="M2.37787 9.24036V23.7874C2.37787 24.145 2.5688 24.4754 2.87862 24.6539L15.5029 31.9279V16.8029L2.37787 9.24036Z" fill="url(#paint9_linear_1756_584)"/>
<path fill-rule="evenodd" clip-rule="evenodd" d="M6.09375 17.4354V19.3301L6.75 19.7125L5.4375 20.6959L4.125 18.183L4.78125 18.5654V16.6779L6.09375 17.4354Z" fill="#BABABA"/>
<path fill-rule="evenodd" clip-rule="evenodd" d="M28.539 9.20435L28.6015 9.24035L28.6014 9.31247L15.5654 16.839V31.8937L15.5027 31.931L15.4404 31.8937V16.839L2.40411 9.32747L2.40424 9.24035L2.45336 9.21197L15.5027 16.7307L28.539 9.20435Z" fill="white"/>
<path d="M26.6225 22.7033L26.6053 22.7126L23.8743 24.3221C23.7554 24.3922 23.7158 24.5454 23.7859 24.6644C23.8526 24.7777 23.9948 24.819 24.111 24.7621L24.1282 24.7528L26.8592 23.1433C26.9781 23.0732 27.0177 22.92 26.9476 22.801C26.8809 22.6877 26.7387 22.6464 26.6225 22.7033ZM26.6206 21.3282L26.6034 21.3375L22.626 23.6816C22.507 23.7517 22.4674 23.9049 22.5376 24.0239C22.6043 24.1372 22.7465 24.1785 22.8626 24.1216L22.8799 24.1123L26.8573 21.7683C26.9762 21.6982 27.0158 21.5449 26.9457 21.426C26.879 21.3127 26.7368 21.2714 26.6206 21.3282ZM26.6225 19.8282L26.6053 19.8375L23.8743 21.447C23.7554 21.5171 23.7158 21.6704 23.7859 21.7893C23.8526 21.9026 23.9948 21.9439 24.111 21.8871L24.1282 21.8778L26.8592 20.2683C26.9781 20.1982 27.0177 20.0449 26.9476 19.926C26.8809 19.8127 26.7387 19.7714 26.6225 19.8282Z" fill="#BABABA"/>
<defs>
<filter id="filter0_f_1756_584" x="0.5" y="18.5332" width="30.1412" height="14.457" filterUnits="userSpaceOnUse" color-interpolation-filters="sRGB">
<feFlood flood-opacity="0" result="BackgroundImageFix"/>
<feBlend mode="normal" in="SourceGraphic" in2="BackgroundImageFix" result="shape"/>
<feGaussianBlur stdDeviation="0.75" result="effect1_foregroundBlur_1756_584"/>
</filter>
<filter id="filter1_f_1756_584" x="4.69037" y="3.05286" width="9.875" height="14.9375" filterUnits="userSpaceOnUse" color-interpolation-filters="sRGB">
<feFlood flood-opacity="0" result="BackgroundImageFix"/>
<feBlend mode="normal" in="SourceGraphic" in2="BackgroundImageFix" result="shape"/>
<feGaussianBlur stdDeviation="0.75" result="effect1_foregroundBlur_1756_584"/>
</filter>
<linearGradient id="paint0_linear_1756_584" x1="9.89561" y1="23.5272" x2="11.7168" y2="44.1794" gradientUnits="userSpaceOnUse">
<stop stop-opacity="0.238"/>
<stop offset="1"/>
</linearGradient>
<linearGradient id="paint1_linear_1756_584" x1="15.5029" y1="0.865326" x2="15.5029" y2="32.0528" gradientUnits="userSpaceOnUse">
<stop stop-color="#E8E8E8"/>
<stop offset="0.99908" stop-color="#969696"/>
</linearGradient>
<linearGradient id="paint2_linear_1756_584" x1="13.8154" y1="2.36533" x2="15.5029" y2="17.2403" gradientUnits="userSpaceOnUse">
<stop stop-color="white"/>
<stop offset="1" stop-color="#A1A1A1"/>
</linearGradient>
<linearGradient id="paint3_linear_1756_584" x1="8.19037" y1="7.24036" x2="12.1904" y2="22.1779" gradientUnits="userSpaceOnUse">
<stop stop-opacity="0.1"/>
<stop offset="1" stop-opacity="0.7"/>
</linearGradient>
<linearGradient id="paint4_linear_1756_584" x1="8.96875" y1="0.802856" x2="18.5937" y2="15.1258" gradientUnits="userSpaceOnUse">
<stop stop-color="#6AC1FF"/>
<stop offset="1" stop-color="#0176ED"/>
</linearGradient>
<linearGradient id="paint5_linear_1756_584" x1="8.96875" y1="1.05286" x2="18.5937" y2="15.3758" gradientUnits="userSpaceOnUse">
<stop stop-color="#79C7FF"/>
<stop offset="1" stop-color="#0176ED"/>
</linearGradient>
<linearGradient id="paint6_linear_1756_584" x1="8.96875" y1="1.17786" x2="18.5937" y2="15.5008" gradientUnits="userSpaceOnUse">
<stop stop-color="#1C9DFA"/>
<stop offset="1" stop-color="#0176ED"/>
</linearGradient>
<linearGradient id="paint7_linear_1756_584" x1="13.875" y1="13.1154" x2="15.5" y2="17.6779" gradientUnits="userSpaceOnUse">
<stop stop-color="#3B64FC" stop-opacity="0"/>
<stop offset="1" stop-color="#1B41C3"/>
</linearGradient>
<linearGradient id="paint8_linear_1756_584" x1="15.5029" y1="16.8029" x2="28.6258" y2="16.7993" gradientUnits="userSpaceOnUse">
<stop offset="0.00045" stop-color="white"/>
<stop offset="1" stop-color="#E1E5E8"/>
</linearGradient>
<linearGradient id="paint9_linear_1756_584" x1="15.5029" y1="16.8654" x2="2.37787" y2="24.3654" gradientUnits="userSpaceOnUse">
<stop stop-color="#D6D9DD"/>
<stop offset="1" stop-color="#FAFCFD"/>
</linearGradient>
<clipPath id="clip0_1756_584">
<rect x="7.25" y="0.802856" width="16.5" height="16.5" rx="2" fill="white"/>
</clipPath>
<clipPath id="clip1_1756_584">
<rect width="12" height="12" fill="white" transform="translate(9.5 3.05286)"/>
</clipPath>
</defs>
</svg>
