<svg width="22" height="22" viewBox="0 0 22 22" fill="none" xmlns="http://www.w3.org/2000/svg">
<path fill-rule="evenodd" clip-rule="evenodd" d="M11.3239 14.2153L12.8397 10.985L14.1537 13.7851L17.1296 7.44328C17.1973 7.29917 17.1348 7.12773 16.9902 7.06035C16.9519 7.0425 16.9101 7.03324 16.8678 7.03324H13.8963L12.4404 10.1341L12.4408 10.1349L10.925 13.3652L10.9243 13.3635L9.0956 17.2587C8.7758 18.0322 7.88952 18.4 7.11604 18.0802C6.76044 17.9331 6.47471 17.6566 6.31582 17.3076L6.29459 17.2587L1.36679 6.75708C0.961065 5.89244 1.33564 4.86379 2.20343 4.45954C2.43341 4.3524 2.68419 4.29688 2.93807 4.29688H8.22968C9.12764 4.29688 9.94444 4.81478 10.3247 5.62529L10.5251 6.0524L9.00793 9.27966L8.10961 7.36533C8.01454 7.16271 7.81034 7.03324 7.58586 7.03324H4.9823C4.82264 7.03324 4.69321 7.1622 4.69321 7.32128C4.69321 7.36344 4.7025 7.40509 4.72042 7.44328L7.69633 13.7851L9.40918 10.1348L9.40659 10.1292L10.9238 6.90197L10.9249 6.90442L11.5253 5.62524C11.9056 4.81476 12.7224 4.29688 13.6203 4.29688H18.912C19.8699 4.29688 20.6465 5.07063 20.6465 6.02511C20.6465 6.27806 20.5908 6.52793 20.4833 6.75708L15.5555 17.2587C15.2354 18.0329 14.3483 18.401 13.5741 18.0809C13.2185 17.9339 12.9327 17.6574 12.7735 17.3085L12.7519 17.2587L11.3239 14.2153Z" fill="url(#paint0_linear_1423_6675)"/>
<path fill-rule="evenodd" clip-rule="evenodd" d="M13.6203 4.29688L16.2828 4.29688C15.5796 4.29688 14.9741 4.71388 14.7018 5.31327L14.682 5.35856L13.8963 7.03324L12.4404 10.1341L12.4408 10.1349L12.2744 10.4895H9.24268L9.40919 10.1348L9.4066 10.1292L10.9238 6.90197L10.925 6.90442L11.5253 5.62524C11.9056 4.81476 12.7224 4.29688 13.6203 4.29688Z" fill="url(#paint1_linear_1423_6675)"/>
<path fill-rule="evenodd" clip-rule="evenodd" d="M18.7163 4.29688C19.7415 4.29687 20.5725 5.12795 20.5725 6.15313C20.5725 6.42569 20.5125 6.69491 20.3967 6.94166L19.4414 8.97738H16.4099L17.1153 7.47404C17.1879 7.31936 17.1213 7.13513 16.9666 7.06255C16.9255 7.04325 16.8806 7.03324 16.8352 7.03324H13.8964L14.6821 5.35856C14.9376 4.7502 15.5321 4.31836 16.2304 4.29765L16.2947 4.29688L18.7163 4.29688Z" fill="url(#paint2_linear_1423_6675)" style="mix-blend-mode:multiply"/>
<defs>
<linearGradient id="paint0_linear_1423_6675" x1="20.6096" y1="18.1435" x2="20.6096" y2="4.29687" gradientUnits="userSpaceOnUse">
<stop offset="0.000976562" stop-color="#FF5100"/>
<stop offset="1" stop-color="#FF1522"/>
</linearGradient>
<linearGradient id="paint1_linear_1423_6675" x1="15.4693" y1="9.24975" x2="15.4693" y2="4.48837" gradientUnits="userSpaceOnUse">
<stop stop-color="#FD7821" stop-opacity="0.01"/>
<stop offset="0.489347" stop-color="#FF5100"/>
<stop offset="1" stop-color="#FF9B27"/>
</linearGradient>
<linearGradient id="paint2_linear_1423_6675" x1="20.0539" y1="7.17674" x2="18.3792" y2="3.25378" gradientUnits="userSpaceOnUse">
<stop stop-color="#FD7821" stop-opacity="0.01"/>
<stop offset="1" stop-color="#881000" stop-opacity="0.924541"/>
</linearGradient>
</defs>
</svg>
